<?xml version="1.0" standalone="no"?>
<!DOCTYPE svg PUBLIC "-//W3C//DTD SVG 20010904//EN"
 "http://www.w3.org/TR/2001/REC-SVG-20010904/DTD/svg10.dtd">
<svg version="1.0" xmlns="http://www.w3.org/2000/svg"
 width="512.000000pt" height="512.000000pt" viewBox="0 0 512.000000 512.000000"
 preserveAspectRatio="xMidYMid meet">
<metadata>
Created by potrace 1.14, written by Peter Selinger 2001-2017
</metadata>
<g transform="translate(0.000000,512.000000) scale(0.100000,-0.100000)"
fill="#000000" stroke="none">
<path d="M1585 5047 c-26 -8 -95 -9 -350 -4 -66 1 -197 -34 -229 -62 -10 -9
-25 -30 -32 -48 -14 -33 -19 -36 -96 -53 -26 -5 -68 -23 -95 -38 -67 -39 -80
-43 -93 -26 -7 8 -19 14 -26 14 -20 0 -101 -64 -159 -124 -27 -29 -65 -59 -83
-66 -40 -16 -64 -46 -132 -170 -29 -52 -74 -125 -101 -161 -67 -91 -105 -171
-133 -286 -46 -183 -51 -224 -32 -278 21 -62 20 -67 -5 -146 l-22 -66 24 -74
c26 -84 30 -186 11 -334 -7 -59 -9 -197 -5 -395 3 -168 7 -573 8 -900 1 -327
5 -613 9 -635 3 -23 9 -52 11 -65 3 -14 8 -40 11 -59 3 -19 10 -45 15 -58 5
-13 6 -23 4 -23 -2 0 -1 -10 4 -23 5 -13 12 -39 15 -58 8 -49 14 -78 21 -99 3
-10 8 -29 10 -41 9 -45 86 -185 145 -264 126 -169 351 -369 389 -346 25 16 3
55 -57 103 -179 144 -295 300 -383 513 -34 81 -83 253 -105 365 -3 14 -17 49
-32 79 -26 52 -26 54 -8 65 58 34 65 60 40 151 -14 52 -10 124 13 213 5 22 7
22 15 7 24 -41 27 -119 15 -395 -8 -183 6 -270 53 -336 26 -36 40 -77 56 -163
8 -42 51 -139 82 -183 31 -45 116 -135 145 -153 8 -5 60 -40 114 -76 167 -113
307 -180 521 -250 83 -28 112 -32 202 -33 87 -1 115 3 164 22 l59 23 20 -22
c18 -19 27 -20 86 -15 36 4 93 9 126 12 33 3 67 7 75 9 19 5 118 15 190 19 30
2 100 -3 155 -11 90 -13 158 -12 238 3 53 9 181 11 226 2 37 -7 55 -4 93 12
42 18 57 19 140 12 138 -12 548 -4 643 13 17 3 41 8 55 10 14 3 36 7 50 10 56
11 126 25 145 29 11 2 54 7 95 11 67 6 110 13 189 29 157 33 333 138 483 288
54 54 102 98 107 98 31 0 22 -85 -13 -140 -13 -19 -27 -46 -31 -59 -7 -24 -8
-24 -21 9 l-14 32 -69 -65 c-38 -36 -101 -84 -140 -107 -73 -43 -270 -128
-318 -136 -16 -3 -36 -7 -45 -10 -10 -3 -30 -7 -45 -10 -28 -5 -133 -50 -133
-57 0 -5 188 1 233 8 48 7 106 36 151 75 18 17 36 30 40 30 3 0 12 -14 21 -30
19 -36 39 -35 123 6 70 34 92 57 92 94 0 43 34 63 83 49 20 -5 43 -6 51 -2 7
4 40 39 74 77 59 67 124 181 138 240 7 31 2 32 -48 11 -13 -5 -16 -2 -13 13
10 54 64 122 96 122 25 0 59 47 59 81 0 15 20 88 44 161 65 194 89 340 72 441
-6 39 -4 53 13 81 32 52 27 86 -19 131 -52 51 -83 148 -60 185 12 19 27 -17
39 -90 6 -34 12 -64 14 -67 8 -8 30 151 28 210 -6 259 -4 904 3 958 8 60 7 76
-16 146 -25 77 -27 110 -14 244 2 26 -4 80 -14 120 -22 93 -18 107 29 111 35
3 36 4 42 53 7 53 4 179 -6 230 -3 17 -20 86 -37 155 -30 121 -48 167 -48 123
0 -35 -17 -36 -29 -1 -16 45 -14 66 9 95 11 14 20 36 20 48 0 27 -100 227
-161 320 -68 104 -149 180 -243 227 -45 22 -115 64 -156 92 -187 130 -344 191
-512 200 -81 5 -96 -1 -186 -70 -32 -25 -51 -31 -97 -33 -33 -1 -54 2 -51 7 3
5 24 9 47 8 45 -2 69 14 64 41 -2 10 -4 21 -4 24 -1 3 -11 10 -23 16 -23 10
-217 9 -244 -1 -8 -3 -32 1 -52 10 -31 13 -104 18 -179 12 -18 -2 -16 -17 2
-24 8 -4 15 -11 15 -17 0 -13 -125 -3 -201 17 -87 23 -136 27 -404 34 -421 10
-423 10 -480 -19 -63 -31 -126 -35 -240 -14 -49 10 -107 15 -130 12 -29 -4
-48 -1 -72 14 -33 20 -75 22 -128 6z m25 -67 c9 -16 6 -22 -17 -37 -21 -14
-50 -18 -138 -20 -178 -2 -238 -6 -270 -15 -16 -5 -34 -10 -40 -12 -5 -1 -27
-10 -49 -19 -62 -27 -94 -21 -75 14 11 22 70 49 119 54 19 2 89 7 156 10 123
5 199 16 244 34 39 15 58 13 70 -9z m1260 -20 l55 -5 -60 -20 c-53 -17 -85
-19 -262 -17 -181 1 -232 -4 -190 -22 6 -3 -23 -5 -65 -4 -60 1 -78 4 -78 15
0 15 35 31 89 39 20 3 54 9 76 14 44 8 349 9 435 0z m1130 -189 c52 -11 119
-29 149 -40 59 -22 86 -41 59 -41 -9 0 -19 4 -22 9 -5 7 -85 33 -149 47 -12 3
-132 5 -267 5 -261 -1 -345 5 -316 21 59 33 385 32 546 -1z m250 -96 c11 -13
10 -14 -4 -9 -9 3 -16 10 -16 15 0 13 6 11 20 -6z m-2983 -1368 c0 -329 4
-601 7 -604 3 -3 114 -6 246 -7 l240 -1 1 30 c0 17 1 289 1 606 l1 577 298 0
c225 1 299 -2 300 -11 1 -16 1 -2647 0 -2669 -1 -16 -25 -17 -298 -15 l-298 2
-2 635 c-1 349 -2 640 -2 647 -1 9 -62 12 -246 12 l-245 0 -1 -32 c0 -18 -1
-309 -2 -647 l-2 -615 -312 -2 -313 -2 0 1349 0 1349 313 -2 312 -2 2 -598z
m3160 575 c52 -37 63 -102 31 -179 -6 -15 -12 -30 -13 -33 0 -3 -6 -15 -13
-27 -7 -13 -10 -23 -7 -23 3 0 -1 -12 -9 -27 -24 -45 -65 -143 -60 -143 3 0
-1 -10 -8 -22 -7 -13 -13 -25 -14 -28 0 -3 -4 -14 -9 -25 -4 -11 -19 -47 -32
-80 -13 -33 -28 -69 -33 -80 -5 -11 -20 -47 -33 -80 -13 -33 -28 -69 -32 -80
-5 -11 -9 -22 -10 -25 -1 -3 -9 -22 -18 -44 -9 -21 -17 -41 -17 -43 0 -3 -6
-19 -14 -36 -12 -28 -26 -62 -31 -77 -1 -3 -8 -18 -15 -35 -7 -16 -14 -32 -15
-35 0 -3 -6 -15 -13 -27 -7 -13 -10 -23 -7 -23 3 0 -2 -11 -11 -24 -8 -14 -16
-29 -16 -33 -1 -10 -4 -18 -19 -58 -7 -16 -13 -32 -14 -35 0 -3 -7 -16 -15
-30 -7 -14 -13 -27 -12 -30 2 -5 -47 -128 -79 -197 -10 -24 -19 -47 -19 -53 0
-6 -4 -18 -10 -28 -11 -18 -32 -73 -31 -82 0 -3 -7 -15 -15 -27 -8 -13 -12
-23 -9 -23 4 0 -1 -12 -9 -27 -12 -24 -21 -45 -31 -73 -4 -12 -19 -48 -36 -87
-11 -23 -19 -44 -19 -46 0 -3 -8 -22 -17 -43 -9 -22 -17 -41 -18 -44 -6 -20
-19 -49 -33 -75 -9 -16 -16 -32 -15 -35 1 -8 -15 -49 -70 -180 -6 -14 -11 -28
-11 -32 -1 -3 -4 -10 -8 -14 -5 -4 -8 -13 -8 -21 0 -11 82 -13 449 -13 l450 0
3 -37 c2 -21 1 -64 0 -95 l-4 -56 -894 0 c-825 0 -893 1 -890 16 1 10 9 31 16
47 7 17 14 32 15 35 9 26 20 51 37 83 10 20 16 37 13 37 -3 0 1 13 9 30 9 16
23 43 32 60 8 17 12 30 9 30 -4 0 2 15 13 33 12 17 21 37 23 42 3 17 11 38 35
93 13 29 24 54 24 56 0 2 8 21 17 42 9 22 17 41 18 44 0 3 11 27 23 54 12 27
22 50 22 53 0 2 9 25 21 51 11 26 24 56 28 67 5 11 13 31 19 45 6 14 18 42 26
63 9 20 23 54 32 75 8 20 19 46 24 57 12 26 43 99 45 105 6 18 19 49 30 75 14
31 37 86 40 95 1 3 8 19 15 35 7 17 14 32 15 35 1 3 9 22 18 44 9 21 17 40 17
42 0 2 9 23 19 47 11 23 31 71 46 107 15 36 36 83 46 106 10 23 19 44 19 46 0
3 10 27 22 54 12 27 23 51 23 54 1 3 6 16 12 30 18 42 36 85 38 90 4 11 26 66
34 85 44 98 63 146 62 152 -1 2 8 18 18 36 39 70 38 130 -2 141 -12 4 -208 7
-434 7 l-413 1 0 98 0 98 813 -1 812 -2 32 -23z m-4289 -759 c2 -38 5 -86 7
-108 10 -83 14 -482 7 -535 l-8 -55 -13 44 c-9 31 -11 87 -7 189 5 140 4 147
-24 236 -32 100 -40 150 -25 152 6 0 15 -13 20 -29 12 -37 36 -49 30 -15 -11
76 -15 139 -9 162 11 45 20 29 22 -41z m28 -868 c21 -90 27 -167 25 -344 0
-112 -3 -206 -5 -208 -5 -6 -33 91 -48 165 -14 67 -16 335 -4 407 8 46 9 48
18 25 5 -14 12 -34 14 -45z"/>
</g>
</svg>
